<svg width="13" height="13" viewBox="0 0 13 13" fill="none" xmlns="http://www.w3.org/2000/svg">
<path d="M1.39214 10.5667L0.86181 11.097L1.92247 12.1577L2.4528 11.6274L1.39214 10.5667ZM12.6725 1.09704C12.6725 0.682831 12.3367 0.347045 11.9225 0.347045L5.17247 0.347045C4.75826 0.347045 4.42247 0.682831 4.42247 1.09704C4.42247 1.51126 4.75826 1.84705 5.17247 1.84704L11.1725 1.84704L11.1725 7.84704C11.1725 8.26126 11.5083 8.59704 11.9225 8.59704C12.3367 8.59704 12.6725 8.26126 12.6725 7.84704L12.6725 1.09704ZM2.4528 11.6274L12.4528 1.62737L11.3921 0.566714L1.39214 10.5667L2.4528 11.6274Z" fill="white"/>
</svg>
