<svg width="45" height="41" viewBox="0 0 45 41" fill="none" xmlns="http://www.w3.org/2000/svg">
<path d="M42.9545 20.492H8.18182V9.02803C8.17462 8.28942 8.36901 7.5629 8.74396 6.92707C9.11891 6.29125 9.66014 5.77033 10.3091 5.42067C11.0272 5.03152 11.8451 4.86722 12.6573 4.94899C12.2439 6.20394 12.185 7.54913 12.4871 8.83556C12.7893 10.122 13.4408 11.2995 14.3693 12.2375L16.5375 14.4114C16.7275 14.6021 16.9531 14.7533 17.2014 14.8565C17.4497 14.9597 17.7159 15.0129 17.9847 15.0129C18.2535 15.0129 18.5196 14.9597 18.7679 14.8565C19.0163 14.7533 19.2418 14.6021 19.4318 14.4114L26.6625 7.1618C27.046 6.77722 27.2614 6.25569 27.2614 5.71189C27.2614 5.16809 27.046 4.64655 26.6625 4.26197L24.4943 2.08813C23.287 0.882729 21.6899 0.149439 19.991 0.0204623C18.292 -0.108515 16.603 0.375308 15.2284 1.3847C13.9892 0.899189 12.6505 0.724606 11.3287 0.87614C10.0069 1.02767 8.74207 1.50073 7.6442 2.25417C6.54634 3.0076 5.64872 4.01858 5.02943 5.19915C4.41015 6.37973 4.08797 7.69414 4.09091 9.02803V20.492H2.04545C1.50297 20.492 0.982697 20.7081 0.5991 21.0927C0.215503 21.4773 0 21.9989 0 22.5428C0 23.0867 0.215503 23.6083 0.5991 23.9929C0.982697 24.3775 1.50297 24.5936 2.04545 24.5936H4.09091V30.746C4.09467 32.0143 4.48992 33.2503 5.22241 34.2843C5.95489 35.3184 6.98868 36.0997 8.18182 36.521V38.9492C8.18182 39.4931 8.39732 40.0147 8.78092 40.3993C9.16452 40.7839 9.68478 41 10.2273 41C10.7698 41 11.29 40.7839 11.6736 40.3993C12.0572 40.0147 12.2727 39.4931 12.2727 38.9492V36.8984H32.7273V38.9492C32.7273 39.4931 32.9428 40.0147 33.3264 40.3993C33.71 40.7839 34.2302 41 34.7727 41C35.3152 41 35.8355 40.7839 36.2191 40.3993C36.6027 40.0147 36.8182 39.4931 36.8182 38.9492V36.521C38.0113 36.0997 39.0451 35.3184 39.7776 34.2843C40.5101 33.2503 40.9053 32.0143 40.9091 30.746V24.5936H42.9545C43.497 24.5936 44.0173 24.3775 44.4009 23.9929C44.7845 23.6083 45 23.0867 45 22.5428C45 21.9989 44.7845 21.4773 44.4009 21.0927C44.0173 20.7081 43.497 20.492 42.9545 20.492ZM17.2636 4.98796C17.8394 4.41289 18.6191 4.09 19.4318 4.09C20.2446 4.09 21.0242 4.41289 21.6 4.98796L22.3241 5.71189L17.9857 10.0616L17.2616 9.3377C16.6863 8.76048 16.3631 7.97784 16.3631 7.1618C16.3631 6.34577 16.6863 5.56313 17.2616 4.98591L17.2636 4.98796ZM36.8182 30.746C36.8182 31.2899 36.6027 31.8115 36.2191 32.1961C35.8355 32.5807 35.3152 32.7968 34.7727 32.7968H10.2273C9.68478 32.7968 9.16452 32.5807 8.78092 32.1961C8.39732 31.8115 8.18182 31.2899 8.18182 30.746V24.5936H36.8182V30.746Z" fill="black"/>
</svg>
