   <svg width="112" height="113" viewBox="0 0 112 113" fill="none" xmlns="http://www.w3.org/2000/svg">
                <path d="M79.3981 30.1713C94.3635 43.5744 95.8059 66.0861 82.9536 80.4366C70.1012 94.787 47.5673 95.8254 32.6019 82.4223C17.6365 69.0192 16.1941 46.5075 29.0464 32.157C41.8988 17.8066 64.4327 16.7682 79.3981 30.1713Z" fill="#BD6938" stroke="white" stroke-width="8"/>
                <g clip-path="url(#clip0_23_1356)">
                <path d="M54.476 54.3916C52.0038 57.1519 54.1582 60.7855 55.5443 62.2573C53.0977 65.5931 55.695 68.3798 57.2994 69.3562C61.7505 72.2372 64.7749 67.3001 65.7307 64.4714C72.252 62.0213 71.0675 57.5061 69.6601 55.5547C66.9335 52.5601 63.6916 53.6637 62.4114 54.5898C58.8099 51.3642 55.839 52.8697 54.476 54.3916Z" fill="white"/>
                <path d="M49.3316 51.3918C50.7715 52.6814 50.8934 54.8942 49.6038 56.3341C48.3142 57.774 46.1015 57.8959 44.6615 56.6063C43.2216 55.3167 42.6512 50.1073 42.6512 50.1073C42.6512 50.1073 47.8917 50.1022 49.3316 51.3918Z" fill="white"/>
                <path d="M55.5582 44.4394C56.9981 45.729 57.12 47.9418 55.8303 49.3817C54.5407 50.8216 52.328 50.9435 50.8881 49.6539C49.4482 48.3643 48.8778 43.1549 48.8778 43.1549C48.8778 43.1549 54.1182 43.1498 55.5582 44.4394Z" fill="white"/>
                <path d="M65.5335 45.5424C66.9734 46.832 67.0953 49.0448 65.8057 50.4847C64.5161 51.9246 62.3034 52.0465 60.8634 50.7569C59.4235 49.4673 58.8531 44.2579 58.8531 44.2579C58.8531 44.2579 64.0936 44.2528 65.5335 45.5424Z" fill="white"/>
                <path d="M51.5233 61.1857C52.9632 62.4754 53.085 64.6881 51.7954 66.128C50.5058 67.5679 48.2931 67.6898 46.8532 66.4002C45.4133 65.1106 44.8429 59.9012 44.8429 59.9012C44.8429 59.9012 50.0833 59.8961 51.5233 61.1857Z" fill="white"/>
                </g>
                <defs>
                <clipPath id="clip0_23_1356">
                <rect width="31.2572" height="32.1466" fill="white" transform="translate(33.6001 57.2155) rotate(-48.1522)"/>
                </clipPath>
                </defs>
                </svg>