<svg width="87" height="87" viewBox="0 0 87 87" fill="none" xmlns="http://www.w3.org/2000/svg">
<path d="M47.0078 39.7827C41.2712 34.0462 33.0686 38.3182 29.6844 41.1713C22.6867 35.4211 16.2821 40.7634 13.9545 44.1533C7.12072 53.5367 17.5493 60.7426 23.6178 63.1727C28.1888 77.7234 38.2019 75.6777 42.6371 72.836C49.5118 67.2361 47.4896 60.0161 45.6192 57.1061C53.104 49.6213 50.1707 42.9456 47.0078 39.7827Z" fill="#E880B1"/>
<path d="M54.185 28.8985C51.1925 31.8909 46.3407 31.8909 43.3482 28.8985C40.3558 25.906 40.3558 21.0542 43.3482 18.0617C46.3407 15.0692 57.7973 14.4494 57.7973 14.4494C57.7973 14.4494 57.1775 25.906 54.185 28.8985Z" fill="#E880B1"/>
<path d="M68.6333 43.3468C65.6408 46.3393 60.789 46.3393 57.7965 43.3468C54.804 40.3543 54.804 35.5025 57.7965 32.51C60.789 29.5175 72.2455 28.8978 72.2455 28.8978C72.2455 28.8978 71.6258 40.3543 68.6333 43.3468Z" fill="#E880B1"/>
<path d="M65.021 65.0209C62.0285 68.0134 57.1767 68.0134 54.1842 65.0209C51.1917 62.0284 51.1917 57.1766 54.1842 54.1841C57.1767 51.1916 68.6332 50.5718 68.6332 50.5718C68.6332 50.5718 68.0135 62.0284 65.021 65.0209Z" fill="#E880B1"/>
<path d="M32.5107 32.5106C29.5182 35.5031 24.6664 35.5031 21.6739 32.5106C18.6814 29.5181 18.6814 24.6663 21.6739 21.6738C24.6664 18.6813 36.123 18.0616 36.123 18.0616C36.123 18.0616 35.5032 29.5181 32.5107 32.5106Z" fill="#E880B1"/>
</svg>
