<svg width="133" height="133" viewBox="0 0 133 133" fill="none" xmlns="http://www.w3.org/2000/svg">
<path d="M62.346 59.5539C51.4483 66.2499 54.9955 80.3929 58.1313 86.6274C46.7509 95.2523 52.5977 107.03 56.9437 111.841C68.8301 125.756 83.6993 112.403 89.6481 103.988C113.635 102.307 114.165 86.2026 111.432 78.3607C105.362 65.7678 93.5498 66.2247 88.4024 68.0273C79.6657 53.8086 68.3545 55.862 62.346 59.5539Z" fill="#E880B1"/>
<path d="M48.2834 44.5619C51.7764 50.2467 49.9996 57.6867 44.3148 61.1798C38.63 64.6728 31.1899 62.896 27.6969 57.2112C24.2039 51.5264 27.449 33.7311 27.449 33.7311C27.449 33.7311 44.7903 38.8771 48.2834 44.5619Z" fill="#E880B1"/>
<path d="M75.7311 27.6967C79.2241 33.3815 77.4473 40.8216 71.7625 44.3146C66.0777 47.8077 58.6376 46.0309 55.1446 40.3461C51.6516 34.6613 54.8968 16.866 54.8968 16.866C54.8968 16.866 72.2381 22.0119 75.7311 27.6967Z" fill="#E880B1"/>
<path d="M107.645 41.1732C111.138 46.858 109.361 54.2981 103.676 57.7911C97.9913 61.2841 90.5512 59.5073 87.0582 53.8225C83.5652 48.1377 86.8103 30.3424 86.8103 30.3424C86.8103 30.3424 104.152 35.4884 107.645 41.1732Z" fill="#E880B1"/>
<path d="M45.8854 79.1212C49.3784 84.806 47.6016 92.2461 41.9168 95.7391C36.232 99.2321 28.7919 97.4553 25.2989 91.7705C21.8059 86.0857 25.0511 68.2904 25.0511 68.2904C25.0511 68.2904 42.3924 73.4364 45.8854 79.1212Z" fill="#E880B1"/>
</svg>
