<svg width="50" height="50" viewBox="0 0 50 50" fill="none" xmlns="http://www.w3.org/2000/svg">
<circle cx="25" cy="25" r="25" fill="black"/>
<path d="M34.9955 21.8621C34.9955 21.8604 34.9957 21.8587 34.9957 21.857C34.9957 19.7707 32.8642 18.0796 30.2348 18.0796C27.6053 18.0796 25.4739 19.7707 25.4739 21.857C25.4739 23.9432 27.6056 25.6343 30.2348 25.6343C30.7752 25.6343 31.2925 25.5596 31.7765 25.4279C30.7054 30.3032 25.9136 33.4473 30.3555 30.8596C35.2809 27.9902 35.001 21.9722 34.9955 21.8621Z" fill="white"/>
<path d="M19.7609 25.6343C20.3013 25.6343 20.8186 25.5595 21.3028 25.4279C20.2314 30.3032 15.4397 33.4472 19.8816 30.8596C24.8071 27.9902 24.5271 21.9722 24.5216 21.8621C24.5216 21.8604 24.5218 21.8587 24.5218 21.857C24.5218 19.7707 22.3903 18.0796 19.7609 18.0796C17.1315 18.0796 15 19.7707 15 21.857C15 23.9432 17.1317 25.6343 19.7609 25.6343Z" fill="white"/>
</svg>
