<svg width="23" height="26" viewBox="0 0 23 26" fill="none" xmlns="http://www.w3.org/2000/svg">
<path fill-rule="evenodd" clip-rule="evenodd" d="M4.21394 3.38016C2.22415 4.92156 4.78031 10.3331 7.76184 10.8913C8.62201 11.0523 9.08347 10.8286 9.49894 10.0495C9.94079 9.22067 10.0392 8.38279 9.84028 7.14458C9.54523 5.30896 7.86178 3.20699 6.37499 2.81804C5.79805 2.66701 4.79899 2.92687 4.21394 3.38016ZM11.5941 0.815325C10.2824 1.85262 10.0892 3.26402 10.9043 5.85518C11.618 8.12349 12.6201 9.18082 14.0485 9.17179C15.2081 9.16473 16.1606 7.18085 16.1856 4.7199C16.2057 2.75104 15.0631 0.447126 13.9177 0.147014C13.2547 -0.0266489 12.3184 0.242604 11.5941 0.815325ZM1.10967 11.6963C0.486435 12.6091 0.755881 14.5615 1.67153 15.7663C2.37633 16.6934 3.76454 17.6141 4.65696 17.7461C6.03655 17.9504 7.57037 16.9341 7.5412 15.8352C7.51722 14.9404 6.90859 13.5975 6.17605 12.8237C4.47108 11.0224 1.95251 10.462 1.10967 11.6963ZM18.767 6.67578C18.175 7.46312 17.5943 8.923 17.5128 9.82905C17.4288 10.7649 17.9681 12.3754 18.6016 13.0798C20.2239 14.8838 22.6776 13.0881 22.9649 9.88656C23.07 8.71744 22.8756 7.90264 22.2647 6.95218C21.2513 5.37475 19.8297 5.26245 18.767 6.67578ZM11.3706 12.8872C10.1675 13.5562 9.55635 14.3638 9.2234 15.7246C9.06287 16.3802 8.73818 17.5916 8.50174 18.4166C7.83876 20.7307 7.70852 22.8701 8.1589 24.0497C8.34153 24.528 8.5185 24.6907 9.17035 24.979C9.72404 25.2238 10.087 25.2794 10.3829 25.1646C10.9988 24.9259 12.2474 24.0538 13.8487 22.7439C15.4758 21.4127 16.0475 21.1973 18.2723 21.0773C20.6497 20.9491 22.1482 20.1591 22.1672 19.024C22.194 17.438 19.008 14.4145 15.5903 12.7822C13.9102 11.9799 12.9595 12.0036 11.3706 12.8872Z" fill="black"/>
</svg>
