<svg width="20" height="20" viewBox="0 0 20 20" fill="none" xmlns="http://www.w3.org/2000/svg">
<path d="M9.88843 8.22223C7.27694 8.22223 6.38226 11.0617 6.26136 12.4814C3.3597 12.7654 3.1179 15.4392 3.3597 16.7406C3.94003 20.432 7.95399 19.6984 9.88843 18.8703C14.2409 21.1418 16.0544 18.397 16.4172 16.7406C16.7073 13.9012 14.6036 12.7181 13.5155 12.4814C13.5155 9.07407 11.3283 8.22223 9.88843 8.22223Z" fill="black"/>
<path d="M9.04465 4.1111C9.04465 5.4734 7.94029 6.57776 6.57799 6.57776C5.21569 6.57776 4.11133 5.4734 4.11133 4.1111C4.11133 2.7488 6.57799 0 6.57799 0C6.57799 0 9.04465 2.7488 9.04465 4.1111Z" fill="black"/>
<path d="M15.6223 4.1111C15.6223 5.4734 14.5179 6.57776 13.1556 6.57776C11.7933 6.57776 10.689 5.4734 10.689 4.1111C10.689 2.7488 13.1556 0 13.1556 0C13.1556 0 15.6223 2.7488 15.6223 4.1111Z" fill="black"/>
<path d="M19.7334 9.86672C19.7334 11.229 18.629 12.3334 17.2667 12.3334C15.9044 12.3334 14.8 11.229 14.8 9.86672C14.8 8.50442 17.2667 5.75562 17.2667 5.75562C17.2667 5.75562 19.7334 8.50442 19.7334 9.86672Z" fill="black"/>
<path d="M4.93332 9.86672C4.93332 11.229 3.82896 12.3334 2.46666 12.3334C1.10436 12.3334 0 11.229 0 9.86672C0 8.50442 2.46666 5.75562 2.46666 5.75562C2.46666 5.75562 4.93332 8.50442 4.93332 9.86672Z" fill="black"/>
</svg>
