<svg width="554" height="512" viewBox="0 0 554 512" fill="none" xmlns="http://www.w3.org/2000/svg">
<g opacity="0.62">
<line y1="-0.5" x2="442.134" y2="-0.5" transform="matrix(0.145843 0.989308 -0.987133 0.1599 405.801 16.6936)" stroke="#E1E1E1" stroke-opacity="0.53"/>
<rect x="1.6904" y="1.25866" width="497.339" height="403.747" transform="matrix(0.988494 -0.151262 0.138438 0.990371 0.97948 77.2153)" stroke="#E1E1E1" stroke-opacity="0.53" stroke-width="3"/>
<line y1="-0.5" x2="442.134" y2="-0.5" transform="matrix(0.145843 0.989308 -0.987133 0.1599 45.2949 72.8209)" stroke="#E1E1E1" stroke-opacity="0.53"/>
<line y1="-0.5" x2="499.162" y2="-0.5" transform="matrix(-0.988493 0.151264 -0.138024 -0.990429 507.293 95.8855)" stroke="#E1E1E1" stroke-opacity="0.53"/>
<line y1="-0.5" x2="496.604" y2="-0.5" transform="matrix(-0.988304 0.152495 -0.139138 -0.990273 519.901 191.092)" stroke="#E1E1E1" stroke-opacity="0.53"/>
<line y1="-0.5" x2="496.604" y2="-0.5" transform="matrix(-0.988304 0.152495 -0.139138 -0.990273 533.891 286.275)" stroke="#E1E1E1" stroke-opacity="0.53"/>
<line y1="-0.5" x2="496.604" y2="-0.5" transform="matrix(-0.988304 0.152495 -0.139138 -0.990273 546.498 381.482)" stroke="#E1E1E1" stroke-opacity="0.53"/>
<line y1="-0.5" x2="442.134" y2="-0.5" transform="matrix(0.145843 0.989308 -0.987133 0.1599 136.252 56.7726)" stroke="#E1E1E1" stroke-opacity="0.53"/>
<line y1="-0.5" x2="442.134" y2="-0.5" transform="matrix(0.145843 0.989308 -0.987133 0.1599 227.27 44.3651)" stroke="#E1E1E1" stroke-opacity="0.53"/>
<line y1="-0.5" x2="442.134" y2="-0.5" transform="matrix(0.145843 0.989308 -0.987133 0.1599 314.808 30.5575)" stroke="#E1E1E1" stroke-opacity="0.53"/>
</g>
</svg>
