<svg width="202" height="202" viewBox="0 0 202 202" fill="none" xmlns="http://www.w3.org/2000/svg">
<circle cx="101" cy="101" r="101" fill="black"/>
<path d="M170.868 100.92L182.83 102.256L182.458 105.584L173.613 107.743L173.607 107.794L181.762 111.818L181.388 115.163L169.426 113.827L169.662 111.715L179.275 112.789L179.279 112.755L170.072 108.049L170.238 106.563L180.251 104.055L180.255 104.021L170.642 102.947L170.868 100.92Z" fill="white"/>
<path d="M169.219 114.65L179.156 123.226L178.606 124.995L165.573 126.37L166.3 124.033L169.263 123.779L170.814 118.796L168.507 116.939L169.219 114.65ZM172.35 120.039L171.239 123.611L176.464 123.296L172.35 120.039Z" fill="white"/>
<path d="M164.35 128.894L174.958 134.58L173.946 136.468L169.361 134.01L169.337 134.055L171.545 140.948L170.18 143.495L167.939 135.909L159.395 138.139L160.816 135.486L168.633 133.678L168.657 133.633L163.338 130.782L164.35 128.894Z" fill="white"/>
<path d="M157.207 141.067L166.547 148.658L161.519 154.846L160.067 153.666L163.745 149.141L161.37 147.211L157.886 151.499L156.487 150.362L159.972 146.075L157.333 143.93L153.463 148.693L151.985 147.492L157.207 141.067Z" fill="white"/>
<path d="M149.406 164.653L149.49 162.585C150.224 162.746 151.199 162.505 151.85 161.959C152.605 161.325 153.172 160.229 152.418 159.33C151.708 158.483 150.784 158.837 149.469 159.385C147.978 160.015 146.03 160.761 144.512 158.95C142.851 156.971 143.592 154.707 145.403 153.188C146.601 152.183 148.221 151.601 149.671 151.849L149.417 153.926C148.437 153.683 147.275 153.992 146.546 154.604C145.777 155.248 145.195 156.38 146.026 157.37C146.834 158.333 148.028 157.799 149.493 157.191C150.908 156.603 152.578 156.134 154.02 157.853C155.593 159.729 154.586 161.994 152.919 163.392C151.994 164.168 150.666 164.727 149.406 164.653Z" fill="white"/>
<path d="M128.944 164.625L132.764 174.046L136.183 172.66L136.885 174.393L128.063 177.97L127.36 176.237L130.779 174.851L126.959 165.43L128.944 164.625Z" fill="white"/>
<path d="M122.605 173.552C123.352 177.338 121.137 180.253 117.501 180.971C113.815 181.698 110.66 179.843 109.912 176.057C109.185 172.371 111.367 169.289 115.052 168.562C118.688 167.844 121.877 169.866 122.605 173.552ZM120.32 174.003C119.823 171.485 117.809 169.976 115.408 170.45C112.989 170.927 111.7 173.088 112.197 175.606C112.678 178.041 114.668 179.606 117.119 179.123C119.554 178.642 120.8 176.438 120.32 174.003Z" fill="white"/>
<path d="M108.227 170.173L108.28 182.209L104.931 182.224L101.765 173.687L101.714 173.687L98.6584 182.251L95.2924 182.266L95.2389 170.231L97.3639 170.221L97.4069 179.894L97.4409 179.894L101.053 170.205L102.549 170.198L106.196 179.855L106.23 179.855L106.187 170.182L108.227 170.173Z" fill="white"/>
<path d="M93.6011 176.128C92.8876 179.921 89.7483 181.804 86.1062 181.119C82.414 180.424 80.1736 177.529 80.8871 173.736C81.5817 170.044 84.7524 167.994 88.4447 168.689C92.0868 169.374 94.2957 172.436 93.6011 176.128ZM91.3122 175.698C91.7868 173.175 90.4786 171.026 88.0728 170.573C85.6503 170.118 83.6506 171.644 83.176 174.167C82.7171 176.606 83.9825 178.799 86.4384 179.261C88.8776 179.72 90.8534 178.137 91.3122 175.698Z" fill="white"/>
<path d="M79.2053 166.737L74.7817 177.931L70.8924 176.394C68.7897 175.563 67.0971 173.925 68.0343 171.553C68.6716 169.941 70.0863 169.275 71.7889 169.546L70.7627 163.401L73.1659 164.35L73.8843 170.118L75.3389 170.693L77.2133 165.95L79.2053 166.737ZM74.6953 172.321L73.0669 171.678C71.9443 171.234 70.5575 170.997 70.0202 172.356C69.5391 173.574 70.6219 174.349 71.6496 174.755L73.4519 175.467L74.6953 172.321Z" fill="white"/>
<path d="M66.9009 161.319L60.4388 171.474L56.9107 169.228C55.0032 168.014 53.6512 166.086 55.0203 163.935C55.9512 162.472 57.4663 162.086 59.087 162.674L59.2423 156.446L61.4223 157.833L61.0362 163.632L62.3557 164.472L65.0938 160.169L66.9009 161.319ZM61.4156 165.949L59.9383 165.009C58.92 164.361 57.6032 163.866 56.8182 165.099C56.1154 166.203 57.032 167.17 57.9642 167.763L59.5992 168.803L61.4156 165.949Z" fill="white"/>
<path d="M53.467 159.752C50.8164 162.557 47.1574 162.444 44.4639 159.898C41.7334 157.318 41.4139 153.671 44.0645 150.866C46.645 148.136 50.4207 148.125 53.1513 150.706C55.8448 153.251 56.0475 157.022 53.467 159.752ZM51.7743 158.152C53.5374 156.287 53.5987 153.772 51.8195 152.09C50.0279 150.397 47.5203 150.6 45.7572 152.466C44.0524 154.27 43.9314 156.799 45.7477 158.515C47.5516 160.22 50.0695 159.956 51.7743 158.152Z" fill="white"/>
<path d="M46.9548 144.794L39.2356 154.676L37.8663 152.771L43.6849 145.72L43.6651 145.693L34.9392 148.699L33.6493 146.904L39.3091 139.633L39.2893 139.605L30.7222 142.832L29.3926 140.983L41.2196 136.815L42.4301 138.499L36.7474 146.059L36.7673 146.087L45.7442 143.109L46.9548 144.794Z" fill="white"/>
<path d="M33.883 120.604L22.199 123.493L21.0725 118.938C20.6358 117.173 20.9955 115.157 23.1244 114.631C24.4446 114.304 25.5233 114.913 26.1843 116.028L26.2173 116.02C26.0521 114.502 26.7811 113.201 28.3489 112.813C30.8903 112.185 32.2953 114.184 32.8422 116.395L33.883 120.604ZM23.401 120.989L26.4375 120.238L25.9804 118.39C25.6376 117.004 24.8763 116.404 23.8697 116.653C22.83 116.91 22.6011 117.755 22.9888 119.323L23.401 120.989ZM28.2198 119.798L31.6194 118.957L31.1582 117.092C30.893 116.019 30.2989 114.538 28.7641 114.917C27.5429 115.219 27.322 116.167 27.7382 117.85L28.2198 119.798Z" fill="white"/>
<path d="M31.1117 107.128L19.092 107.754L18.6772 99.7915L20.5447 99.6942L20.848 105.517L23.9039 105.358L23.6165 99.8406L25.416 99.7469L25.7035 105.264L29.0988 105.088L28.7796 98.9588L30.681 98.8598L31.1117 107.128Z" fill="white"/>
<path d="M31.3423 90.9208L21.2734 89.5188L20.7647 93.1725L18.9125 92.9146L20.2255 83.4856L22.0776 83.7435L21.5688 87.3972L31.6377 88.7993L31.3423 90.9208Z" fill="white"/>
<path d="M34.2509 77.8154L24.6293 74.5332L23.4382 78.0246L21.6684 77.4208L24.7421 68.4107L26.5119 69.0144L25.3209 72.5059L34.9424 75.7881L34.2509 77.8154Z" fill="white"/>
<path d="M38.2021 67.921L27.752 61.9494L31.7078 55.0269L33.3314 55.9547L30.4384 61.0174L33.0952 62.5356L35.8364 57.7386L37.4009 58.6326L34.6597 63.4296L37.6117 65.1165L40.6566 59.7881L42.3097 60.7328L38.2021 67.921Z" fill="white"/>
<path d="M45.239 56.6463L36.1079 48.8049L38.8324 45.6322C40.3054 43.9169 42.4066 42.8531 44.3412 44.5144C45.6567 45.6441 45.8231 47.1986 45.0103 48.7191L51.1533 49.7592L49.4698 51.7196L43.7843 50.5121L42.7654 51.6986L46.6345 55.0213L45.239 56.6463ZM41.437 50.5579L42.5777 49.2295C43.3641 48.3138 44.042 47.0808 42.9328 46.1283C41.9397 45.2755 40.8529 46.0453 40.133 46.8836L38.8704 48.3539L41.437 50.5579Z" fill="white"/>
<path d="M58.159 44.2688L57.2395 31.1755L58.8828 30.3191L69.0435 38.5961L66.8726 39.7275L64.6048 37.8039L59.9767 40.2159L60.2847 43.161L58.159 44.2688ZM59.7763 38.25L63.0929 36.5214L59.1869 33.0361L59.7763 38.25Z" fill="white"/>
<path d="M70.9558 37.9058L67.5136 26.3725L70.234 25.5606L78.1702 32.5947L78.2028 32.5849L75.626 23.9513L77.6785 23.3387L81.1208 34.872L78.5144 35.6499L70.3815 28.3729L70.3489 28.3826L73.0084 37.2932L70.9558 37.9058Z" fill="white"/>
<path d="M84.0735 34.3028L82.8761 22.3265L87.1219 21.9021C90.2513 21.5892 93.8848 22.7294 94.3346 27.229C94.754 31.4241 91.4487 33.5655 88.3193 33.8784L84.0735 34.3028ZM86.0188 32.229L87.7949 32.0515C89.994 31.8316 92.374 30.6882 92.051 27.4573C91.7077 24.0234 89.1653 23.5429 86.9663 23.7628L85.1901 23.9403L86.0188 32.229Z" fill="white"/>
<path d="M103.91 31.217L105.149 19.2449L107.279 19.4654L106.779 24.3015L112.376 24.8806L112.877 20.0444L115.007 20.2649L113.769 32.237L111.638 32.0165L112.187 26.7069L106.59 26.1278L106.041 31.4375L103.91 31.217Z" fill="white"/>
<path d="M118.301 33.2537L121.783 21.7324L129.415 24.0389L128.874 25.829L123.292 24.1421L122.407 27.0712L127.696 28.6696L127.174 30.3945L121.886 28.7962L120.902 32.0508L126.777 33.8262L126.226 35.6488L118.301 33.2537Z" fill="white"/>
<path d="M128.987 36.6026L139.221 28.3843L140.861 29.2464L139.851 42.3127L137.685 41.1739L137.973 38.2141L133.353 35.7861L131.108 37.7177L128.987 36.6026ZM134.854 34.5009L138.165 36.2409L138.802 31.0449L134.854 34.5009Z" fill="white"/>
<path d="M143.299 44.9211L150.813 35.5192L152.486 36.8565L146.16 44.7711L150.158 47.9659L148.969 49.4532L143.299 44.9211Z" fill="white"/>
<path d="M154.6 55.3282L162.336 48.7318L159.942 45.9248L161.365 44.7114L167.542 51.9551L166.119 53.1685L163.725 50.3616L155.99 56.9581L154.6 55.3282Z" fill="white"/>
<path d="M160.551 62.828L171.022 56.8924L172.078 58.7559L167.848 61.1536L170.623 66.0487L174.853 63.651L175.909 65.5145L165.439 71.45L164.382 69.5866L169.026 66.9542L166.251 62.059L161.607 64.6914L160.551 62.828Z" fill="white"/>
<path d="M168.137 78.3919L173.082 76.7239L178.096 70.2604L178.933 72.7411L175.1 77.2275L180.878 78.5079L181.671 80.8597L173.766 78.7536L168.821 80.4216L168.137 78.3919Z" fill="white"/>
<path d="M98.7099 96.2079C92.8466 99.8106 94.7551 107.42 96.4422 110.774C90.3192 115.415 93.465 121.752 95.8033 124.34C102.199 131.827 110.199 124.643 113.399 120.115C126.305 119.21 126.59 110.546 125.12 106.327C121.854 99.5512 115.499 99.797 112.729 100.767C108.028 93.1167 101.943 94.2215 98.7099 96.2079Z" fill="white"/>
<path d="M91.1439 88.1418C93.0232 91.2004 92.0673 95.2034 89.0087 97.0827C85.9501 98.9621 81.947 98.0061 80.0677 94.9475C78.1883 91.8889 79.9343 82.3145 79.9343 82.3145C79.9343 82.3145 89.2645 85.0831 91.1439 88.1418Z" fill="white"/>
<path d="M105.911 79.0678C107.791 82.1264 106.835 86.1294 103.776 88.0087C100.718 89.8881 96.7146 88.9321 94.8353 85.8735C92.9559 82.8149 94.7019 73.2405 94.7019 73.2405C94.7019 73.2405 104.032 76.0092 105.911 79.0678Z" fill="white"/>
<path d="M123.082 86.3185C124.961 89.3771 124.005 93.3801 120.947 95.2595C117.888 97.1388 113.885 96.1829 112.006 93.1243C110.127 90.0657 111.873 80.4912 111.873 80.4912C111.873 80.4912 121.203 83.2599 123.082 86.3185Z" fill="white"/>
<path d="M89.8536 106.736C91.7329 109.794 90.777 113.797 87.7184 115.677C84.6598 117.556 80.6568 116.6 78.7774 113.541C76.8981 110.483 78.644 100.908 78.644 100.908C78.644 100.908 87.9742 103.677 89.8536 106.736Z" fill="white"/>
</svg>
